HIERARCHY
ROOT reference
{
  OFFSET 0 0 0
  CHANNELS 6 Xposition Yposition Zposition Zrotation Xrotation Yrotation
  JOINT Hips
  {
    OFFSET 27.2487 89.8941 63.0569
    CHANNELS 6 Xposition Yposition Zposition Zrotation Xrotation Yrotation
    JOINT Spine
    {
      OFFSET 0 8.25043 0
      CHANNELS 6 Xposition Yposition Zposition Zrotation Xrotation Yrotation
      JOINT Spine1
      {
        OFFSET 0 26.9735 0
        CHANNELS 6 Xposition Yposition Zposition Zrotation Xrotation Yrotation
        JOINT Neck
        {
          OFFSET 0 26.8627 2.44206
          CHANNELS 6 Xposition Yposition Zposition Zrotation Xrotation Yrotation
          JOINT Head
          {
            OFFSET 0 14.0861 -2.0123
            CHANNELS 6 Xposition Yposition Zposition Zrotation Xrotation Yrotation
            End Site
            {
              OFFSET 0 25.1537 0
            }
          }
        }
        JOINT LeftShoulder
        {
          OFFSET 4.03461 23.8974 -0.31355
          CHANNELS 6 Xposition Yposition Zposition Zrotation Xrotation Yrotation
          JOINT LeftArm
          {
            OFFSET 14.6104 0 0
            CHANNELS 6 Xposition Yposition Zposition Zrotation Xrotation Yrotation
            JOINT LeftForeArm
            {
              OFFSET 28.8903 0 0
              CHANNELS 6 Xposition Yposition Zposition Zrotation Xrotation Yrotation
              JOINT LeftHand
              {
                OFFSET 28.8168 0 0
                CHANNELS 6 Xposition Yposition Zposition Zrotation Xrotation Yrotation
                End Site
                {
                  OFFSET 15.0922 0 0
                }
              }
            }
          }
        }
        JOINT RightShoulder
        {
          OFFSET -4.01401 23.8974 -0.31355
          CHANNELS 6 Xposition Yposition Zposition Zrotation Xrotation Yrotation
          JOINT RightArm
          {
            OFFSET -14.6104 0 0
            CHANNELS 6 Xposition Yposition Zposition Zrotation Xrotation Yrotation
            JOINT RightForeArm
            {
              OFFSET -28.8903 0 0
              CHANNELS 6 Xposition Yposition Zposition Zrotation Xrotation Yrotation
              JOINT RightHand
              {
                OFFSET -28.8168 0 0
                CHANNELS 6 Xposition Yposition Zposition Zrotation Xrotation Yrotation
                End Site
                {
                  OFFSET -15.0922 0 0
                }
              }
            }
          }
        }
      }
    }
    JOINT LeftUpLeg
    {
      OFFSET 10.0615 0 0
      CHANNELS 6 Xposition Yposition Zposition Zrotation Xrotation Yrotation
      JOINT LeftLeg
      {
        OFFSET 0 -36.0896 0
        CHANNELS 6 Xposition Yposition Zposition Zrotation Xrotation Yrotation
        JOINT LeftFoot
        {
          OFFSET 0 -47.1136 0
          CHANNELS 6 Xposition Yposition Zposition Zrotation Xrotation Yrotation
          JOINT LeftToeBase
          {
            OFFSET 0 -6.53997 15.0922
            CHANNELS 6 Xposition Yposition Zposition Zrotation Xrotation Yrotation
            End Site
            {
              OFFSET 0 0 4.0246
            }
          }
        }
      }
    }
    JOINT RightUpLeg
    {
      OFFSET -10.0615 0 0
      CHANNELS 6 Xposition Yposition Zposition Zrotation Xrotation Yrotation
      JOINT RightLeg
      {
        OFFSET 0 -36.0896 0
        CHANNELS 6 Xposition Yposition Zposition Zrotation Xrotation Yrotation
        JOINT RightFoot
        {
          OFFSET 0 -47.1136 0
          CHANNELS 6 Xposition Yposition Zposition Zrotation Xrotation Yrotation
          JOINT RightToeBase
          {
            OFFSET 0 -6.53997 15.0922
            CHANNELS 6 Xposition Yposition Zposition Zrotation Xrotation Yrotation
            End Site
            {
              OFFSET 0 0 4.0246
            }
          }
        }
      }
    }
  }
}
MOTION
Frames:	7
Frame Time:	0.004
0 0 0 0 0 -0 6.679 84.9352 -165.632 -0.419554 1.79741 -4.2758 1.77636e-015 8.25043 0 -2.59704 -1.90227 2.73359 -8.88178e-016 26.9735 -2.84217e-014 -6.10444 24.7292 4.1161 0 26.8627 2.44206 4.22646 39.8636 8.73197 7.10543e-015 14.0861 -2.0123 -2.65383 20.9851 10.2378 4.03461 23.8974 -0.31355 -3.87966 13.442 -10.6776 14.6104 -1.42109e-014 0 -11.3217 45.1866 -58.5626 28.8903 2.84217e-014 -7.10543e-015 3.39848 -6.26955 -11.6319 28.8168 0 7.10543e-015 22.606 -5.79277 0.667379 -4.01401 23.8974 -0.31355 -0.0135063 20.9948 19.8695 -14.6104 -1.42109e-014 0 4.01271 46.806 66.16 -28.8903 2.84217e-014 0 -12.3518 -7.76815 10.4894 -28.8168 -2.84217e-014 3.55271e-015 -12.7185 -6.18974 -4.05336 10.0615 -1.42109e-014 -2.84217e-014 0.460132 -11.8407 -1.09157 1.77636e-015 -36.0896 0 -4.92168 19.283 -13.8718 0 -47.1136 0 8.63315 -10.4176 22.8316 0 -6.53997 15.0922 -1.86361e-016 3.97569e-016 -1.98785e-016 -10.0615 1.42109e-014 -2.84217e-014 -4.42452 -17.4879 0.543149 -3.55271e-015 -36.0896 0 4.89308 63.2223 0.293788 0 -47.1136 0 -1.47998 -10.1052 -3.88936 0 -6.53997 15.0922 -3.97569e-016 9.54166e-015 -3.97569e-016 
0 0 0 0 0 -0 6.7431 84.9691 -165.286 -0.48985 1.75496 -4.21871 -8.88178e-016 8.25043 2.84217e-014 -2.52282 -1.90769 2.63561 1.77636e-015 26.9735 0 -6.07014 24.7075 4.00828 0 26.8627 2.44206 4.27775 39.8957 8.74915 0 14.0861 -2.0123 -2.67827 20.9776 10.2706 4.03461 23.8974 -0.31355 -3.84256 13.4552 -10.7148 14.6104 0 0 -11.2763 45.1443 -58.6468 28.8903 2.84217e-014 0 3.43846 -6.26365 -11.5727 28.8168 0 -7.10543e-015 22.3854 -5.80738 0.558463 -4.01401 23.8974 -0.31355 -0.0109986 20.9403 19.8568 -14.6104 1.42109e-014 2.84217e-014 4.09771 46.8649 66.0496 -28.8903 0 0 -12.4199 -7.88134 10.4708 -28.8168 0 0 -12.9278 -6.28625 -4.10084 10.0615 2.84217e-014 0 0.463218 -11.4612 -1.02713 -5.32907e-015 -36.0896 -2.84217e-014 -4.88821 19.1202 -14.1417 0 -47.1136 0 8.75585 -10.4862 22.9856 7.10543e-015 -6.53997 15.0922 1.36664e-016 0 -0 -10.0615 1.42109e-014 2.84217e-014 -4.36572 -17.9903 0.274882 0 -36.0896 2.84217e-014 4.66934 63.4969 0.29785 0 -47.1136 0 -1.72398 -10.3726 -3.66204 0 -6.53997 15.0922 -3.97569e-016 -6.36111e-015 -1.59028e-015 
0 0 0 0 0 -0 6.79038 85.0068 -164.939 -0.572666 1.72979 -4.11438 -1.77636e-015 8.25043 0 -2.45871 -1.94708 2.52284 0 26.9735 2.84217e-014 -6.01403 24.716 3.88238 -1.77636e-015 26.8627 2.44206 4.3752 39.6896 8.83123 0 14.0861 -2.0123 -2.68072 21.3553 10.3794 4.03461 23.8974 -0.31355 -3.89957 13.2198 -10.7725 14.6104 0 0 -10.4802 45.7369 -59.0011 28.8903 0 0 3.60987 -6.58821 -11.7745 28.8168 -2.84217e-014 -7.10543e-015 22.179 -6.07474 0.737297 -4.01401 23.8974 -0.31355 0.0305361 20.9173 19.8015 -14.6104 1.42109e-014 0 4.15282 46.8878 65.9565 -28.8903 0 0 -12.5211 -8.02592 10.4372 -28.8168 -1.42109e-014 0 -13.0751 -6.42151 -4.09097 10.0615 1.42109e-014 0 0.482909 -11.0544 -1.27492 0 -36.0896 2.84217e-014 -4.94522 18.8272 -13.8885 -7.10543e-015 -47.1136 0 8.80663 -10.5644 22.8747 -3.55271e-015 -6.53997 15.0922 0 0 -1.98785e-016 -10.0615 0 0 -4.30842 -18.479 0.069297 0 -36.0896 0 4.7185 63.7085 -0.065945 0 -47.1136 -2.84217e-014 -1.49366 -10.6645 -3.52524 -3.55271e-015 -6.53997 15.0922 -0 -6.36111e-015 -0 
0 0 0 0 0 -0 6.84266 85.0406 -164.591 -0.642706 1.66686 -4.02807 -8.88178e-016 8.25043 2.84217e-014 -2.39715 -1.96011 2.41467 1.77636e-015 26.9735 2.84217e-014 -5.95981 24.736 3.76366 8.88178e-016 26.8627 2.44206 4.34416 39.6585 8.87225 -7.10543e-015 14.0861 -2.0123 -2.59046 21.4097 10.4101 4.03461 23.8974 -0.31355 -3.87377 13.202 -10.79 14.6104 1.42109e-014 2.84217e-014 -10.6828 45.5809 -58.9192 28.8903 2.84217e-014 7.10543e-015 3.55744 -6.541 -11.7524 28.8168 0 0 22.4846 -6.04711 0.658386 -4.01401 23.8974 -0.31355 0.0407667 20.8591 19.7703 -14.6104 -1.42109e-014 0 4.30572 46.8883 65.81 -28.8903 -2.84217e-014 0 -12.5427 -8.13363 10.4359 -28.8168 4.26326e-014 -3.55271e-015 -13.3177 -6.50696 -4.19506 10.0615 0 0 0.489098 -10.6442 -1.29212 0 -36.0896 -2.84217e-014 -4.93285 18.6255 -13.9926 0 -47.1136 0 8.88827 -10.6407 22.9051 -3.55271e-015 -6.53997 15.0922 -2.85753e-016 0 -3.97569e-016 -10.0615 0 2.84217e-014 -4.33721 -19.0056 0.239725 -3.55271e-015 -36.0896 -2.84217e-014 5.74772 64.0087 -1.04441 1.77636e-015 -47.1136 2.84217e-014 -1.70277 -10.7897 -3.68296 0 -6.53997 15.0922 -7.95139e-016 -6.36111e-015 7.95139e-016 
0 0 0 0 0 -0 6.8989 85.0705 -164.256 -0.732596 1.633 -3.89974 -8.88178e-016 8.25043 0 -2.30519 -1.96156 2.28503 0 26.9735 0 -5.89819 24.704 3.61721 -5.32907e-015 26.8627 2.44206 4.38009 39.685 8.88759 0 14.0861 -2.0123 -2.62208 21.4091 10.4376 4.03461 23.8974 -0.31355 -3.8139 13.3791 -10.7345 14.6104 -1.42109e-014 2.84217e-014 -10.6567 45.3078 -59.0864 28.8903 0 0 3.55119 -6.4939 -11.7363 28.8168 -1.42109e-014 -7.10543e-015 22.5271 -5.97829 0.772309 -4.01401 23.8974 -0.31355 0.0381428 20.8509 19.746 -14.6104 0 2.84217e-014 4.48686 46.869 65.632 -28.8903 -2.84217e-014 1.42109e-014 -12.5978 -8.24656 10.4534 -28.8168 2.84217e-014 0 -13.5306 -6.59335 -4.2976 10.0615 -1.42109e-014 2.84217e-014 0.502209 -10.2979 -1.327 -1.77636e-015 -36.0896 -2.84217e-014 -4.90447 18.4655 -14.1322 7.10543e-015 -47.1136 2.84217e-014 8.96574 -10.7206 22.9562 0 -6.53997 15.0922 -4.96962e-017 0 -1.98785e-016 -10.0615 -1.42109e-014 2.84217e-014 -4.31509 -19.4589 0.409138 0 -36.0896 0 6.69329 64.1303 -2.04377 1.77636e-015 -47.1136 -2.84217e-014 -1.95072 -11.0307 -3.75761 3.55271e-015 -6.53997 15.0922 -3.97569e-016 0 3.97569e-016 
0 0 0 0 0 -0 6.95308 85.1059 -163.905 -0.816913 1.56707 -3.77851 0 8.25043 2.84217e-014 -2.24111 -1.94387 2.16263 8.88178e-016 26.9735 0 -5.80202 24.6863 3.4713 1.77636e-015 26.8627 2.44206 4.47425 39.6668 8.87323 0 14.0861 -2.0123 -2.7085 21.5102 10.4512 4.03461 23.8974 -0.31355 -3.80573 13.3066 -10.7685 14.6104 -2.84217e-014 0 -10.73 45.3056 -59.0651 28.8903 -2.84217e-014 0 3.56552 -6.47967 -11.7266 28.8168 0 0 22.3982 -5.96202 0.781241 -4.01401 23.8974 -0.31355 0.038222 20.8222 19.6969 -14.6104 -1.42109e-014 0 4.66346 46.8385 65.4611 -28.8903 0 -7.10543e-015 -12.6215 -8.36627 10.4743 -28.8168 0 3.55271e-015 -13.8228 -6.68944 -4.36845 10.0615 0 2.84217e-014 0.518349 -9.89271 -1.326 0 -36.0896 2.84217e-014 -4.87952 18.287 -14.3383 -7.10543e-015 -47.1136 0 9.05355 -10.7844 23.0447 3.55271e-015 -6.53997 15.0922 -2.11209e-016 3.97569e-016 -0 -10.0615 1.42109e-014 0 -4.25616 -19.8702 0.20446 0 -36.0896 -2.84217e-014 6.74227 64.2217 -2.09858 -3.55271e-015 -47.1136 0 -1.91608 -11.3273 -3.90551 0 -6.53997 15.0922 4.41391e-032 -3.18055e-015 7.95139e-016 
0 0 0 0 0 -0 7.01389 85.1301 -163.587 -0.892197 1.59924 -3.60485 0 8.25043 0 -2.17464 -1.97972 2.02021 -8.88178e-016 26.9735 -2.84217e-014 -5.7043 24.6145 3.30325 1.77636e-015 26.8627 2.44206 4.46702 39.7038 8.88711 0 14.0861 -2.0123 -2.60134 21.4949 10.46 4.03461 23.8974 -0.31355 -3.80407 13.3217 -10.8118 14.6104 0 0 -10.9001 45.1996 -58.9838 28.8903 0 0 3.62853 -6.45276 -11.7219 28.8168 0 0 22.3448 -5.90463 0.906112 -4.01401 23.8974 -0.31355 0.0555037 20.8097 19.6278 -14.6104 1.42109e-014 0 4.65428 46.9306 65.4176 -28.8903 2.84217e-014 7.10543e-015 -12.764 -8.68704 10.4474 -28.8168 1.42109e-014 0 -13.9062 -6.98669 -4.4631 10.0615 -1.42109e-014 2.84217e-014 0.514588 -9.68549 -1.27428 3.55271e-015 -36.0896 0 -4.81033 18.2365 -14.6432 0 -47.1136 2.84217e-014 9.13489 -10.8603 23.1206 0 -6.53997 15.0922 3.72721e-017 0 3.97569e-016 -10.0615 0 0 -4.24106 -20.4268 -0.031286 0 -36.0896 0 6.89547 64.3707 -2.33947 1.77636e-015 -47.1136 2.84217e-014 -2.07468 -11.4679 -3.85305 0 -6.53997 15.0922 1.19271e-015 0 -0 
